<mxfile host="app.diagrams.net" modified="2024-03-29T20:53:31.576Z" agent="Mozilla/5.0 (Windows NT 10.0; Win64; x64; rv:124.0) Gecko/20100101 Firefox/124.0" etag="7JF4X1PHLa2XqrYVv2XG" version="24.2.0" type="device">
  <diagram id="R2lEEEUBdFMjLlhIrx00" name="Page-1">
    <mxGraphModel dx="3240" dy="1257" grid="1" gridSize="10" guides="1" tooltips="1" connect="1" arrows="1" fold="1" page="1" pageScale="1" pageWidth="850" pageHeight="1100" math="0" shadow="0" extFonts="Permanent Marker^https://fonts.googleapis.com/css?family=Permanent+Marker">
      <root>
        <mxCell id="0" />
        <mxCell id="1" parent="0" />
        <mxCell id="C-vyLk0tnHw3VtMMgP7b-1" value="" style="edgeStyle=entityRelationEdgeStyle;endArrow=ERzeroToMany;startArrow=ERone;endFill=1;startFill=0;" parent="1" source="C-vyLk0tnHw3VtMMgP7b-24" target="C-vyLk0tnHw3VtMMgP7b-6" edge="1">
          <mxGeometry width="100" height="100" relative="1" as="geometry">
            <mxPoint x="-505" y="1080" as="sourcePoint" />
            <mxPoint x="-405" y="980" as="targetPoint" />
          </mxGeometry>
        </mxCell>
        <mxCell id="C-vyLk0tnHw3VtMMgP7b-2" value="PREFERENCES" style="shape=table;startSize=30;container=1;collapsible=1;childLayout=tableLayout;fixedRows=1;rowLines=0;fontStyle=1;align=center;resizeLast=1;" parent="1" vertex="1">
          <mxGeometry x="-345" y="400" width="250" height="150" as="geometry" />
        </mxCell>
        <mxCell id="C-vyLk0tnHw3VtMMgP7b-3" value="" style="shape=partialRectangle;collapsible=0;dropTarget=0;pointerEvents=0;fillColor=none;points=[[0,0.5],[1,0.5]];portConstraint=eastwest;top=0;left=0;right=0;bottom=1;" parent="C-vyLk0tnHw3VtMMgP7b-2" vertex="1">
          <mxGeometry y="30" width="250" height="30" as="geometry" />
        </mxCell>
        <mxCell id="C-vyLk0tnHw3VtMMgP7b-4" value="PK" style="shape=partialRectangle;overflow=hidden;connectable=0;fillColor=none;top=0;left=0;bottom=0;right=0;fontStyle=1;" parent="C-vyLk0tnHw3VtMMgP7b-3" vertex="1">
          <mxGeometry width="30" height="30" as="geometry">
            <mxRectangle width="30" height="30" as="alternateBounds" />
          </mxGeometry>
        </mxCell>
        <mxCell id="C-vyLk0tnHw3VtMMgP7b-5" value="setting_UUID int " style="shape=partialRectangle;overflow=hidden;connectable=0;fillColor=none;top=0;left=0;bottom=0;right=0;align=left;spacingLeft=6;fontStyle=0;" parent="C-vyLk0tnHw3VtMMgP7b-3" vertex="1">
          <mxGeometry x="30" width="220" height="30" as="geometry">
            <mxRectangle width="220" height="30" as="alternateBounds" />
          </mxGeometry>
        </mxCell>
        <mxCell id="C-vyLk0tnHw3VtMMgP7b-6" value="" style="shape=partialRectangle;collapsible=0;dropTarget=0;pointerEvents=0;fillColor=none;points=[[0,0.5],[1,0.5]];portConstraint=eastwest;top=0;left=0;right=0;bottom=0;" parent="C-vyLk0tnHw3VtMMgP7b-2" vertex="1">
          <mxGeometry y="60" width="250" height="30" as="geometry" />
        </mxCell>
        <mxCell id="C-vyLk0tnHw3VtMMgP7b-7" value="FK1" style="shape=partialRectangle;overflow=hidden;connectable=0;fillColor=none;top=0;left=0;bottom=0;right=0;" parent="C-vyLk0tnHw3VtMMgP7b-6" vertex="1">
          <mxGeometry width="30" height="30" as="geometry">
            <mxRectangle width="30" height="30" as="alternateBounds" />
          </mxGeometry>
        </mxCell>
        <mxCell id="C-vyLk0tnHw3VtMMgP7b-8" value="user_UUID int NOT NULL" style="shape=partialRectangle;overflow=hidden;connectable=0;fillColor=none;top=0;left=0;bottom=0;right=0;align=left;spacingLeft=6;" parent="C-vyLk0tnHw3VtMMgP7b-6" vertex="1">
          <mxGeometry x="30" width="220" height="30" as="geometry">
            <mxRectangle width="220" height="30" as="alternateBounds" />
          </mxGeometry>
        </mxCell>
        <mxCell id="C-vyLk0tnHw3VtMMgP7b-9" value="" style="shape=partialRectangle;collapsible=0;dropTarget=0;pointerEvents=0;fillColor=none;points=[[0,0.5],[1,0.5]];portConstraint=eastwest;top=0;left=0;right=0;bottom=0;" parent="C-vyLk0tnHw3VtMMgP7b-2" vertex="1">
          <mxGeometry y="90" width="250" height="30" as="geometry" />
        </mxCell>
        <mxCell id="C-vyLk0tnHw3VtMMgP7b-10" value="" style="shape=partialRectangle;overflow=hidden;connectable=0;fillColor=none;top=0;left=0;bottom=0;right=0;" parent="C-vyLk0tnHw3VtMMgP7b-9" vertex="1">
          <mxGeometry width="30" height="30" as="geometry">
            <mxRectangle width="30" height="30" as="alternateBounds" />
          </mxGeometry>
        </mxCell>
        <mxCell id="C-vyLk0tnHw3VtMMgP7b-11" value="Dark/Light Theme Boolean NOT NULL" style="shape=partialRectangle;overflow=hidden;connectable=0;fillColor=none;top=0;left=0;bottom=0;right=0;align=left;spacingLeft=6;" parent="C-vyLk0tnHw3VtMMgP7b-9" vertex="1">
          <mxGeometry x="30" width="220" height="30" as="geometry">
            <mxRectangle width="220" height="30" as="alternateBounds" />
          </mxGeometry>
        </mxCell>
        <mxCell id="C-vyLk0tnHw3VtMMgP7b-23" value="USER" style="shape=table;startSize=30;container=1;collapsible=1;childLayout=tableLayout;fixedRows=1;rowLines=0;fontStyle=1;align=center;resizeLast=1;" parent="1" vertex="1">
          <mxGeometry x="-765" y="620" width="250" height="150" as="geometry" />
        </mxCell>
        <mxCell id="C-vyLk0tnHw3VtMMgP7b-24" value="" style="shape=partialRectangle;collapsible=0;dropTarget=0;pointerEvents=0;fillColor=none;points=[[0,0.5],[1,0.5]];portConstraint=eastwest;top=0;left=0;right=0;bottom=1;" parent="C-vyLk0tnHw3VtMMgP7b-23" vertex="1">
          <mxGeometry y="30" width="250" height="30" as="geometry" />
        </mxCell>
        <mxCell id="C-vyLk0tnHw3VtMMgP7b-25" value="PK" style="shape=partialRectangle;overflow=hidden;connectable=0;fillColor=none;top=0;left=0;bottom=0;right=0;fontStyle=1;" parent="C-vyLk0tnHw3VtMMgP7b-24" vertex="1">
          <mxGeometry width="30" height="30" as="geometry">
            <mxRectangle width="30" height="30" as="alternateBounds" />
          </mxGeometry>
        </mxCell>
        <mxCell id="C-vyLk0tnHw3VtMMgP7b-26" value="user_UUID int" style="shape=partialRectangle;overflow=hidden;connectable=0;fillColor=none;top=0;left=0;bottom=0;right=0;align=left;spacingLeft=6;fontStyle=0;" parent="C-vyLk0tnHw3VtMMgP7b-24" vertex="1">
          <mxGeometry x="30" width="220" height="30" as="geometry">
            <mxRectangle width="220" height="30" as="alternateBounds" />
          </mxGeometry>
        </mxCell>
        <mxCell id="C-vyLk0tnHw3VtMMgP7b-27" value="" style="shape=partialRectangle;collapsible=0;dropTarget=0;pointerEvents=0;fillColor=none;points=[[0,0.5],[1,0.5]];portConstraint=eastwest;top=0;left=0;right=0;bottom=0;" parent="C-vyLk0tnHw3VtMMgP7b-23" vertex="1">
          <mxGeometry y="60" width="250" height="30" as="geometry" />
        </mxCell>
        <mxCell id="C-vyLk0tnHw3VtMMgP7b-28" value="" style="shape=partialRectangle;overflow=hidden;connectable=0;fillColor=none;top=0;left=0;bottom=0;right=0;" parent="C-vyLk0tnHw3VtMMgP7b-27" vertex="1">
          <mxGeometry width="30" height="30" as="geometry">
            <mxRectangle width="30" height="30" as="alternateBounds" />
          </mxGeometry>
        </mxCell>
        <mxCell id="C-vyLk0tnHw3VtMMgP7b-29" value="user_name varchar(50) NOT NULL" style="shape=partialRectangle;overflow=hidden;connectable=0;fillColor=none;top=0;left=0;bottom=0;right=0;align=left;spacingLeft=6;" parent="C-vyLk0tnHw3VtMMgP7b-27" vertex="1">
          <mxGeometry x="30" width="220" height="30" as="geometry">
            <mxRectangle width="220" height="30" as="alternateBounds" />
          </mxGeometry>
        </mxCell>
        <mxCell id="mfoJ44MU-BZibPAk5XFG-4" value="" style="endArrow=none;html=1;rounded=0;exitX=-0.001;exitY=0.987;exitDx=0;exitDy=0;exitPerimeter=0;entryX=0.998;entryY=0.987;entryDx=0;entryDy=0;entryPerimeter=0;" parent="C-vyLk0tnHw3VtMMgP7b-23" source="C-vyLk0tnHw3VtMMgP7b-27" target="C-vyLk0tnHw3VtMMgP7b-27" edge="1">
          <mxGeometry width="50" height="50" relative="1" as="geometry">
            <mxPoint x="130" y="130" as="sourcePoint" />
            <mxPoint x="290" y="140" as="targetPoint" />
          </mxGeometry>
        </mxCell>
        <mxCell id="mfoJ44MU-BZibPAk5XFG-2" value="" style="endArrow=none;html=1;rounded=0;" parent="1" edge="1">
          <mxGeometry width="50" height="50" relative="1" as="geometry">
            <mxPoint x="-735" y="770" as="sourcePoint" />
            <mxPoint x="-735" y="710" as="targetPoint" />
          </mxGeometry>
        </mxCell>
        <mxCell id="mfoJ44MU-BZibPAk5XFG-5" value="user_email varchar(50) NOT NULL" style="shape=partialRectangle;overflow=hidden;connectable=0;fillColor=none;top=0;left=0;bottom=0;right=0;align=left;spacingLeft=6;" parent="1" vertex="1">
          <mxGeometry x="-735" y="710" width="220" height="30" as="geometry">
            <mxRectangle width="220" height="30" as="alternateBounds" />
          </mxGeometry>
        </mxCell>
        <mxCell id="mfoJ44MU-BZibPAk5XFG-6" value="user_phone varchar(50) UQ" style="shape=partialRectangle;overflow=hidden;connectable=0;fillColor=none;top=0;left=0;bottom=0;right=0;align=left;spacingLeft=6;" parent="1" vertex="1">
          <mxGeometry x="-735" y="740" width="220" height="30" as="geometry">
            <mxRectangle width="220" height="30" as="alternateBounds" />
          </mxGeometry>
        </mxCell>
        <mxCell id="mfoJ44MU-BZibPAk5XFG-8" value="" style="endArrow=none;html=1;rounded=0;exitX=-0.001;exitY=0.987;exitDx=0;exitDy=0;exitPerimeter=0;entryX=0.998;entryY=0.987;entryDx=0;entryDy=0;entryPerimeter=0;" parent="1" edge="1">
          <mxGeometry width="50" height="50" relative="1" as="geometry">
            <mxPoint x="-765" y="740" as="sourcePoint" />
            <mxPoint x="-515" y="740" as="targetPoint" />
          </mxGeometry>
        </mxCell>
        <mxCell id="mfoJ44MU-BZibPAk5XFG-9" value="" style="endArrow=none;html=1;rounded=0;exitX=-0.001;exitY=0.987;exitDx=0;exitDy=0;exitPerimeter=0;entryX=0.998;entryY=0.987;entryDx=0;entryDy=0;entryPerimeter=0;" parent="1" edge="1">
          <mxGeometry width="50" height="50" relative="1" as="geometry">
            <mxPoint x="-765" y="770" as="sourcePoint" />
            <mxPoint x="-515" y="770" as="targetPoint" />
          </mxGeometry>
        </mxCell>
        <mxCell id="mfoJ44MU-BZibPAk5XFG-18" value="" style="endArrow=none;html=1;rounded=0;exitX=-0.001;exitY=0.987;exitDx=0;exitDy=0;exitPerimeter=0;entryX=0.998;entryY=0.987;entryDx=0;entryDy=0;entryPerimeter=0;" parent="1" edge="1">
          <mxGeometry width="50" height="50" relative="1" as="geometry">
            <mxPoint x="-345" y="490" as="sourcePoint" />
            <mxPoint x="-95" y="490" as="targetPoint" />
          </mxGeometry>
        </mxCell>
        <mxCell id="mfoJ44MU-BZibPAk5XFG-19" value="" style="endArrow=none;html=1;rounded=0;exitX=-0.001;exitY=0.987;exitDx=0;exitDy=0;exitPerimeter=0;entryX=0.998;entryY=0.987;entryDx=0;entryDy=0;entryPerimeter=0;" parent="1" edge="1">
          <mxGeometry width="50" height="50" relative="1" as="geometry">
            <mxPoint x="-345" y="519.52" as="sourcePoint" />
            <mxPoint x="-95" y="519.52" as="targetPoint" />
          </mxGeometry>
        </mxCell>
        <mxCell id="mfoJ44MU-BZibPAk5XFG-20" value="" style="endArrow=none;html=1;rounded=0;exitX=-0.001;exitY=0.987;exitDx=0;exitDy=0;exitPerimeter=0;entryX=0.998;entryY=0.987;entryDx=0;entryDy=0;entryPerimeter=0;" parent="1" edge="1">
          <mxGeometry width="50" height="50" relative="1" as="geometry">
            <mxPoint x="-345" y="549.52" as="sourcePoint" />
            <mxPoint x="-95" y="549.52" as="targetPoint" />
          </mxGeometry>
        </mxCell>
        <mxCell id="mfoJ44MU-BZibPAk5XFG-24" value="" style="endArrow=none;html=1;rounded=0;" parent="1" edge="1">
          <mxGeometry width="50" height="50" relative="1" as="geometry">
            <mxPoint x="-315" y="550" as="sourcePoint" />
            <mxPoint x="-315" y="520" as="targetPoint" />
          </mxGeometry>
        </mxCell>
        <mxCell id="mfoJ44MU-BZibPAk5XFG-25" value="push notifications Boolean NOT NULL" style="shape=partialRectangle;overflow=hidden;connectable=0;fillColor=none;top=0;left=0;bottom=0;right=0;align=left;spacingLeft=6;" parent="1" vertex="1">
          <mxGeometry x="-315" y="520" width="220" height="30" as="geometry">
            <mxRectangle width="220" height="30" as="alternateBounds" />
          </mxGeometry>
        </mxCell>
        <mxCell id="2Aj4ZYjr2lwg0RpOKkCZ-14" value="USER" style="rounded=0;whiteSpace=wrap;html=1;" parent="1" vertex="1">
          <mxGeometry x="-800" y="160" width="120" height="60" as="geometry" />
        </mxCell>
        <mxCell id="2Aj4ZYjr2lwg0RpOKkCZ-15" value="PREFERENCES" style="rounded=0;whiteSpace=wrap;html=1;" parent="1" vertex="1">
          <mxGeometry x="-520" y="40" width="120" height="60" as="geometry" />
        </mxCell>
        <mxCell id="2Aj4ZYjr2lwg0RpOKkCZ-16" value="FAVORITES" style="rounded=0;whiteSpace=wrap;html=1;" parent="1" vertex="1">
          <mxGeometry x="-520" y="160" width="120" height="60" as="geometry" />
        </mxCell>
        <mxCell id="2Aj4ZYjr2lwg0RpOKkCZ-17" value="MESSAGES" style="rounded=0;whiteSpace=wrap;html=1;" parent="1" vertex="1">
          <mxGeometry x="-280" y="280" width="120" height="60" as="geometry" />
        </mxCell>
        <mxCell id="2Aj4ZYjr2lwg0RpOKkCZ-21" value="CHAT" style="rounded=0;whiteSpace=wrap;html=1;" parent="1" vertex="1">
          <mxGeometry x="-520" y="280" width="120" height="60" as="geometry" />
        </mxCell>
        <mxCell id="2Aj4ZYjr2lwg0RpOKkCZ-23" value="" style="endArrow=classic;html=1;rounded=0;exitX=1;exitY=0;exitDx=0;exitDy=0;entryX=0;entryY=0.5;entryDx=0;entryDy=0;" parent="1" source="2Aj4ZYjr2lwg0RpOKkCZ-14" target="2Aj4ZYjr2lwg0RpOKkCZ-15" edge="1">
          <mxGeometry width="50" height="50" relative="1" as="geometry">
            <mxPoint x="-280" y="370" as="sourcePoint" />
            <mxPoint x="-230" y="320" as="targetPoint" />
          </mxGeometry>
        </mxCell>
        <mxCell id="2Aj4ZYjr2lwg0RpOKkCZ-25" value="" style="endArrow=classic;html=1;rounded=0;exitX=1;exitY=0.5;exitDx=0;exitDy=0;entryX=0;entryY=0.5;entryDx=0;entryDy=0;" parent="1" source="2Aj4ZYjr2lwg0RpOKkCZ-14" target="2Aj4ZYjr2lwg0RpOKkCZ-16" edge="1">
          <mxGeometry width="50" height="50" relative="1" as="geometry">
            <mxPoint x="-660" y="180" as="sourcePoint" />
            <mxPoint x="-500" y="90" as="targetPoint" />
          </mxGeometry>
        </mxCell>
        <mxCell id="2Aj4ZYjr2lwg0RpOKkCZ-26" value="" style="endArrow=classic;html=1;rounded=0;exitX=1;exitY=1;exitDx=0;exitDy=0;entryX=0;entryY=0.5;entryDx=0;entryDy=0;" parent="1" source="2Aj4ZYjr2lwg0RpOKkCZ-14" target="2Aj4ZYjr2lwg0RpOKkCZ-21" edge="1">
          <mxGeometry width="50" height="50" relative="1" as="geometry">
            <mxPoint x="-650" y="190" as="sourcePoint" />
            <mxPoint x="-490" y="100" as="targetPoint" />
          </mxGeometry>
        </mxCell>
        <mxCell id="2Aj4ZYjr2lwg0RpOKkCZ-27" value="" style="endArrow=classic;html=1;rounded=0;exitX=1;exitY=0.5;exitDx=0;exitDy=0;entryX=0;entryY=0.5;entryDx=0;entryDy=0;" parent="1" source="2Aj4ZYjr2lwg0RpOKkCZ-21" target="2Aj4ZYjr2lwg0RpOKkCZ-17" edge="1">
          <mxGeometry width="50" height="50" relative="1" as="geometry">
            <mxPoint x="-640" y="200" as="sourcePoint" />
            <mxPoint x="-480" y="110" as="targetPoint" />
          </mxGeometry>
        </mxCell>
        <mxCell id="2Aj4ZYjr2lwg0RpOKkCZ-28" value="FAVORITES" style="shape=table;startSize=30;container=1;collapsible=1;childLayout=tableLayout;fixedRows=1;rowLines=0;fontStyle=1;align=center;resizeLast=1;" parent="1" vertex="1">
          <mxGeometry x="-345" y="590" width="260" height="150" as="geometry" />
        </mxCell>
        <mxCell id="2Aj4ZYjr2lwg0RpOKkCZ-29" value="" style="shape=partialRectangle;collapsible=0;dropTarget=0;pointerEvents=0;fillColor=none;points=[[0,0.5],[1,0.5]];portConstraint=eastwest;top=0;left=0;right=0;bottom=1;" parent="2Aj4ZYjr2lwg0RpOKkCZ-28" vertex="1">
          <mxGeometry y="30" width="260" height="30" as="geometry" />
        </mxCell>
        <mxCell id="2Aj4ZYjr2lwg0RpOKkCZ-30" value="PK" style="shape=partialRectangle;overflow=hidden;connectable=0;fillColor=none;top=0;left=0;bottom=0;right=0;fontStyle=1;" parent="2Aj4ZYjr2lwg0RpOKkCZ-29" vertex="1">
          <mxGeometry width="30" height="30" as="geometry">
            <mxRectangle width="30" height="30" as="alternateBounds" />
          </mxGeometry>
        </mxCell>
        <mxCell id="2Aj4ZYjr2lwg0RpOKkCZ-31" value="favorites_UUID int" style="shape=partialRectangle;overflow=hidden;connectable=0;fillColor=none;top=0;left=0;bottom=0;right=0;align=left;spacingLeft=6;fontStyle=0;" parent="2Aj4ZYjr2lwg0RpOKkCZ-29" vertex="1">
          <mxGeometry x="30" width="230" height="30" as="geometry">
            <mxRectangle width="230" height="30" as="alternateBounds" />
          </mxGeometry>
        </mxCell>
        <mxCell id="2Aj4ZYjr2lwg0RpOKkCZ-32" value="" style="shape=partialRectangle;collapsible=0;dropTarget=0;pointerEvents=0;fillColor=none;points=[[0,0.5],[1,0.5]];portConstraint=eastwest;top=0;left=0;right=0;bottom=0;" parent="2Aj4ZYjr2lwg0RpOKkCZ-28" vertex="1">
          <mxGeometry y="60" width="260" height="30" as="geometry" />
        </mxCell>
        <mxCell id="2Aj4ZYjr2lwg0RpOKkCZ-33" value="FK1" style="shape=partialRectangle;overflow=hidden;connectable=0;fillColor=none;top=0;left=0;bottom=0;right=0;" parent="2Aj4ZYjr2lwg0RpOKkCZ-32" vertex="1">
          <mxGeometry width="30" height="30" as="geometry">
            <mxRectangle width="30" height="30" as="alternateBounds" />
          </mxGeometry>
        </mxCell>
        <mxCell id="2Aj4ZYjr2lwg0RpOKkCZ-34" value="user_UUID int NOT NULL" style="shape=partialRectangle;overflow=hidden;connectable=0;fillColor=none;top=0;left=0;bottom=0;right=0;align=left;spacingLeft=6;" parent="2Aj4ZYjr2lwg0RpOKkCZ-32" vertex="1">
          <mxGeometry x="30" width="230" height="30" as="geometry">
            <mxRectangle width="230" height="30" as="alternateBounds" />
          </mxGeometry>
        </mxCell>
        <mxCell id="2Aj4ZYjr2lwg0RpOKkCZ-35" value="" style="shape=partialRectangle;collapsible=0;dropTarget=0;pointerEvents=0;fillColor=none;points=[[0,0.5],[1,0.5]];portConstraint=eastwest;top=0;left=0;right=0;bottom=0;" parent="2Aj4ZYjr2lwg0RpOKkCZ-28" vertex="1">
          <mxGeometry y="90" width="260" height="30" as="geometry" />
        </mxCell>
        <mxCell id="2Aj4ZYjr2lwg0RpOKkCZ-36" value="" style="shape=partialRectangle;overflow=hidden;connectable=0;fillColor=none;top=0;left=0;bottom=0;right=0;" parent="2Aj4ZYjr2lwg0RpOKkCZ-35" vertex="1">
          <mxGeometry width="30" height="30" as="geometry">
            <mxRectangle width="30" height="30" as="alternateBounds" />
          </mxGeometry>
        </mxCell>
        <mxCell id="2Aj4ZYjr2lwg0RpOKkCZ-37" value="character_name varchar(50) NOT NULL" style="shape=partialRectangle;overflow=hidden;connectable=0;fillColor=none;top=0;left=0;bottom=0;right=0;align=left;spacingLeft=6;" parent="2Aj4ZYjr2lwg0RpOKkCZ-35" vertex="1">
          <mxGeometry x="30" width="230" height="30" as="geometry">
            <mxRectangle width="230" height="30" as="alternateBounds" />
          </mxGeometry>
        </mxCell>
        <mxCell id="2Aj4ZYjr2lwg0RpOKkCZ-38" value="" style="edgeStyle=entityRelationEdgeStyle;endArrow=ERzeroToMany;startArrow=ERone;endFill=1;startFill=0;exitX=1;exitY=0.5;exitDx=0;exitDy=0;entryX=0;entryY=0.5;entryDx=0;entryDy=0;" parent="1" source="C-vyLk0tnHw3VtMMgP7b-24" target="2Aj4ZYjr2lwg0RpOKkCZ-32" edge="1">
          <mxGeometry width="100" height="100" relative="1" as="geometry">
            <mxPoint x="-475" y="515" as="sourcePoint" />
            <mxPoint x="-325" y="515" as="targetPoint" />
          </mxGeometry>
        </mxCell>
        <mxCell id="2Aj4ZYjr2lwg0RpOKkCZ-39" value="" style="endArrow=none;html=1;rounded=0;exitX=-0.001;exitY=0.987;exitDx=0;exitDy=0;exitPerimeter=0;entryX=1;entryY=0.003;entryDx=0;entryDy=0;entryPerimeter=0;" parent="1" target="2Aj4ZYjr2lwg0RpOKkCZ-35" edge="1">
          <mxGeometry width="50" height="50" relative="1" as="geometry">
            <mxPoint x="-345" y="680" as="sourcePoint" />
            <mxPoint x="-95" y="680" as="targetPoint" />
          </mxGeometry>
        </mxCell>
        <mxCell id="2Aj4ZYjr2lwg0RpOKkCZ-40" value="" style="endArrow=none;html=1;rounded=0;exitX=-0.001;exitY=0.987;exitDx=0;exitDy=0;exitPerimeter=0;" parent="1" edge="1">
          <mxGeometry width="50" height="50" relative="1" as="geometry">
            <mxPoint x="-345" y="710" as="sourcePoint" />
            <mxPoint x="-85" y="710" as="targetPoint" />
          </mxGeometry>
        </mxCell>
        <mxCell id="2Aj4ZYjr2lwg0RpOKkCZ-42" value="" style="endArrow=none;html=1;rounded=0;" parent="1" edge="1">
          <mxGeometry width="50" height="50" relative="1" as="geometry">
            <mxPoint x="-315" y="710" as="sourcePoint" />
            <mxPoint x="-315" y="740" as="targetPoint" />
          </mxGeometry>
        </mxCell>
        <mxCell id="2Aj4ZYjr2lwg0RpOKkCZ-43" value="character_mythic_rating int NOT NULL" style="shape=partialRectangle;overflow=hidden;connectable=0;fillColor=none;top=0;left=0;bottom=0;right=0;align=left;spacingLeft=6;" parent="1" vertex="1">
          <mxGeometry x="-315" y="710" width="220" height="30" as="geometry">
            <mxRectangle width="220" height="30" as="alternateBounds" />
          </mxGeometry>
        </mxCell>
        <mxCell id="2Aj4ZYjr2lwg0RpOKkCZ-45" value="CHAT" style="shape=table;startSize=30;container=1;collapsible=1;childLayout=tableLayout;fixedRows=1;rowLines=0;fontStyle=1;align=center;resizeLast=1;" parent="1" vertex="1">
          <mxGeometry x="-345" y="790" width="260" height="150" as="geometry" />
        </mxCell>
        <mxCell id="2Aj4ZYjr2lwg0RpOKkCZ-46" value="" style="shape=partialRectangle;collapsible=0;dropTarget=0;pointerEvents=0;fillColor=none;points=[[0,0.5],[1,0.5]];portConstraint=eastwest;top=0;left=0;right=0;bottom=1;" parent="2Aj4ZYjr2lwg0RpOKkCZ-45" vertex="1">
          <mxGeometry y="30" width="260" height="30" as="geometry" />
        </mxCell>
        <mxCell id="2Aj4ZYjr2lwg0RpOKkCZ-47" value="PK" style="shape=partialRectangle;overflow=hidden;connectable=0;fillColor=none;top=0;left=0;bottom=0;right=0;fontStyle=1;" parent="2Aj4ZYjr2lwg0RpOKkCZ-46" vertex="1">
          <mxGeometry width="30" height="30" as="geometry">
            <mxRectangle width="30" height="30" as="alternateBounds" />
          </mxGeometry>
        </mxCell>
        <mxCell id="2Aj4ZYjr2lwg0RpOKkCZ-48" value="chat_UUID int" style="shape=partialRectangle;overflow=hidden;connectable=0;fillColor=none;top=0;left=0;bottom=0;right=0;align=left;spacingLeft=6;fontStyle=0;" parent="2Aj4ZYjr2lwg0RpOKkCZ-46" vertex="1">
          <mxGeometry x="30" width="230" height="30" as="geometry">
            <mxRectangle width="230" height="30" as="alternateBounds" />
          </mxGeometry>
        </mxCell>
        <mxCell id="2Aj4ZYjr2lwg0RpOKkCZ-49" value="" style="shape=partialRectangle;collapsible=0;dropTarget=0;pointerEvents=0;fillColor=none;points=[[0,0.5],[1,0.5]];portConstraint=eastwest;top=0;left=0;right=0;bottom=0;" parent="2Aj4ZYjr2lwg0RpOKkCZ-45" vertex="1">
          <mxGeometry y="60" width="260" height="30" as="geometry" />
        </mxCell>
        <mxCell id="2Aj4ZYjr2lwg0RpOKkCZ-50" value="FK1" style="shape=partialRectangle;overflow=hidden;connectable=0;fillColor=none;top=0;left=0;bottom=0;right=0;" parent="2Aj4ZYjr2lwg0RpOKkCZ-49" vertex="1">
          <mxGeometry width="30" height="30" as="geometry">
            <mxRectangle width="30" height="30" as="alternateBounds" />
          </mxGeometry>
        </mxCell>
        <mxCell id="2Aj4ZYjr2lwg0RpOKkCZ-51" value="user_UUID int NOT NULL" style="shape=partialRectangle;overflow=hidden;connectable=0;fillColor=none;top=0;left=0;bottom=0;right=0;align=left;spacingLeft=6;" parent="2Aj4ZYjr2lwg0RpOKkCZ-49" vertex="1">
          <mxGeometry x="30" width="230" height="30" as="geometry">
            <mxRectangle width="230" height="30" as="alternateBounds" />
          </mxGeometry>
        </mxCell>
        <mxCell id="2Aj4ZYjr2lwg0RpOKkCZ-52" value="" style="shape=partialRectangle;collapsible=0;dropTarget=0;pointerEvents=0;fillColor=none;points=[[0,0.5],[1,0.5]];portConstraint=eastwest;top=0;left=0;right=0;bottom=0;" parent="2Aj4ZYjr2lwg0RpOKkCZ-45" vertex="1">
          <mxGeometry y="90" width="260" height="30" as="geometry" />
        </mxCell>
        <mxCell id="2Aj4ZYjr2lwg0RpOKkCZ-53" value="" style="shape=partialRectangle;overflow=hidden;connectable=0;fillColor=none;top=0;left=0;bottom=0;right=0;" parent="2Aj4ZYjr2lwg0RpOKkCZ-52" vertex="1">
          <mxGeometry width="30" height="30" as="geometry">
            <mxRectangle width="30" height="30" as="alternateBounds" />
          </mxGeometry>
        </mxCell>
        <mxCell id="2Aj4ZYjr2lwg0RpOKkCZ-54" value="character_name varchar(50) NOT NULL" style="shape=partialRectangle;overflow=hidden;connectable=0;fillColor=none;top=0;left=0;bottom=0;right=0;align=left;spacingLeft=6;" parent="2Aj4ZYjr2lwg0RpOKkCZ-52" vertex="1">
          <mxGeometry x="30" width="230" height="30" as="geometry">
            <mxRectangle width="230" height="30" as="alternateBounds" />
          </mxGeometry>
        </mxCell>
        <mxCell id="2Aj4ZYjr2lwg0RpOKkCZ-55" value="" style="endArrow=none;html=1;rounded=0;exitX=-0.001;exitY=0.987;exitDx=0;exitDy=0;exitPerimeter=0;entryX=1;entryY=0.003;entryDx=0;entryDy=0;entryPerimeter=0;" parent="1" target="2Aj4ZYjr2lwg0RpOKkCZ-52" edge="1">
          <mxGeometry width="50" height="50" relative="1" as="geometry">
            <mxPoint x="-345" y="880" as="sourcePoint" />
            <mxPoint x="-95" y="880" as="targetPoint" />
          </mxGeometry>
        </mxCell>
        <mxCell id="2Aj4ZYjr2lwg0RpOKkCZ-56" value="" style="endArrow=none;html=1;rounded=0;exitX=-0.001;exitY=0.987;exitDx=0;exitDy=0;exitPerimeter=0;" parent="1" edge="1">
          <mxGeometry width="50" height="50" relative="1" as="geometry">
            <mxPoint x="-345" y="910" as="sourcePoint" />
            <mxPoint x="-85" y="910" as="targetPoint" />
          </mxGeometry>
        </mxCell>
        <mxCell id="2Aj4ZYjr2lwg0RpOKkCZ-57" value="" style="endArrow=none;html=1;rounded=0;" parent="1" edge="1">
          <mxGeometry width="50" height="50" relative="1" as="geometry">
            <mxPoint x="-315" y="910" as="sourcePoint" />
            <mxPoint x="-315" y="940" as="targetPoint" />
          </mxGeometry>
        </mxCell>
        <mxCell id="2Aj4ZYjr2lwg0RpOKkCZ-58" value="character_mythic_rating int NOT NULL" style="shape=partialRectangle;overflow=hidden;connectable=0;fillColor=none;top=0;left=0;bottom=0;right=0;align=left;spacingLeft=6;" parent="1" vertex="1">
          <mxGeometry x="-315" y="910" width="220" height="30" as="geometry">
            <mxRectangle width="220" height="30" as="alternateBounds" />
          </mxGeometry>
        </mxCell>
        <mxCell id="2Aj4ZYjr2lwg0RpOKkCZ-59" value="" style="edgeStyle=entityRelationEdgeStyle;endArrow=ERzeroToMany;startArrow=ERone;endFill=1;startFill=0;exitX=1;exitY=0.5;exitDx=0;exitDy=0;entryX=0;entryY=0.5;entryDx=0;entryDy=0;" parent="1" source="C-vyLk0tnHw3VtMMgP7b-24" target="2Aj4ZYjr2lwg0RpOKkCZ-49" edge="1">
          <mxGeometry width="100" height="100" relative="1" as="geometry">
            <mxPoint x="-485" y="635" as="sourcePoint" />
            <mxPoint x="-335" y="675" as="targetPoint" />
          </mxGeometry>
        </mxCell>
        <mxCell id="2Aj4ZYjr2lwg0RpOKkCZ-60" value="MESSAGE" style="shape=table;startSize=30;container=1;collapsible=1;childLayout=tableLayout;fixedRows=1;rowLines=0;fontStyle=1;align=center;resizeLast=1;" parent="1" vertex="1">
          <mxGeometry y="790" width="260" height="150" as="geometry" />
        </mxCell>
        <mxCell id="2Aj4ZYjr2lwg0RpOKkCZ-61" value="" style="shape=partialRectangle;collapsible=0;dropTarget=0;pointerEvents=0;fillColor=none;points=[[0,0.5],[1,0.5]];portConstraint=eastwest;top=0;left=0;right=0;bottom=1;" parent="2Aj4ZYjr2lwg0RpOKkCZ-60" vertex="1">
          <mxGeometry y="30" width="260" height="30" as="geometry" />
        </mxCell>
        <mxCell id="2Aj4ZYjr2lwg0RpOKkCZ-62" value="PK" style="shape=partialRectangle;overflow=hidden;connectable=0;fillColor=none;top=0;left=0;bottom=0;right=0;fontStyle=1;" parent="2Aj4ZYjr2lwg0RpOKkCZ-61" vertex="1">
          <mxGeometry width="30" height="30" as="geometry">
            <mxRectangle width="30" height="30" as="alternateBounds" />
          </mxGeometry>
        </mxCell>
        <mxCell id="2Aj4ZYjr2lwg0RpOKkCZ-63" value="message_UUID int" style="shape=partialRectangle;overflow=hidden;connectable=0;fillColor=none;top=0;left=0;bottom=0;right=0;align=left;spacingLeft=6;fontStyle=0;" parent="2Aj4ZYjr2lwg0RpOKkCZ-61" vertex="1">
          <mxGeometry x="30" width="230" height="30" as="geometry">
            <mxRectangle width="230" height="30" as="alternateBounds" />
          </mxGeometry>
        </mxCell>
        <mxCell id="2Aj4ZYjr2lwg0RpOKkCZ-64" value="" style="shape=partialRectangle;collapsible=0;dropTarget=0;pointerEvents=0;fillColor=none;points=[[0,0.5],[1,0.5]];portConstraint=eastwest;top=0;left=0;right=0;bottom=0;" parent="2Aj4ZYjr2lwg0RpOKkCZ-60" vertex="1">
          <mxGeometry y="60" width="260" height="30" as="geometry" />
        </mxCell>
        <mxCell id="2Aj4ZYjr2lwg0RpOKkCZ-65" value="FK1" style="shape=partialRectangle;overflow=hidden;connectable=0;fillColor=none;top=0;left=0;bottom=0;right=0;" parent="2Aj4ZYjr2lwg0RpOKkCZ-64" vertex="1">
          <mxGeometry width="30" height="30" as="geometry">
            <mxRectangle width="30" height="30" as="alternateBounds" />
          </mxGeometry>
        </mxCell>
        <mxCell id="2Aj4ZYjr2lwg0RpOKkCZ-66" value="chat_UUID int NOT NULL" style="shape=partialRectangle;overflow=hidden;connectable=0;fillColor=none;top=0;left=0;bottom=0;right=0;align=left;spacingLeft=6;" parent="2Aj4ZYjr2lwg0RpOKkCZ-64" vertex="1">
          <mxGeometry x="30" width="230" height="30" as="geometry">
            <mxRectangle width="230" height="30" as="alternateBounds" />
          </mxGeometry>
        </mxCell>
        <mxCell id="2Aj4ZYjr2lwg0RpOKkCZ-67" value="" style="shape=partialRectangle;collapsible=0;dropTarget=0;pointerEvents=0;fillColor=none;points=[[0,0.5],[1,0.5]];portConstraint=eastwest;top=0;left=0;right=0;bottom=0;" parent="2Aj4ZYjr2lwg0RpOKkCZ-60" vertex="1">
          <mxGeometry y="90" width="260" height="30" as="geometry" />
        </mxCell>
        <mxCell id="2Aj4ZYjr2lwg0RpOKkCZ-68" value="" style="shape=partialRectangle;overflow=hidden;connectable=0;fillColor=none;top=0;left=0;bottom=0;right=0;" parent="2Aj4ZYjr2lwg0RpOKkCZ-67" vertex="1">
          <mxGeometry width="30" height="30" as="geometry">
            <mxRectangle width="30" height="30" as="alternateBounds" />
          </mxGeometry>
        </mxCell>
        <mxCell id="2Aj4ZYjr2lwg0RpOKkCZ-69" value="message_string varchar(50) NOT NULL" style="shape=partialRectangle;overflow=hidden;connectable=0;fillColor=none;top=0;left=0;bottom=0;right=0;align=left;spacingLeft=6;" parent="2Aj4ZYjr2lwg0RpOKkCZ-67" vertex="1">
          <mxGeometry x="30" width="230" height="30" as="geometry">
            <mxRectangle width="230" height="30" as="alternateBounds" />
          </mxGeometry>
        </mxCell>
        <mxCell id="2Aj4ZYjr2lwg0RpOKkCZ-70" value="" style="endArrow=none;html=1;rounded=0;exitX=-0.001;exitY=0.987;exitDx=0;exitDy=0;exitPerimeter=0;entryX=1;entryY=0.003;entryDx=0;entryDy=0;entryPerimeter=0;" parent="1" target="2Aj4ZYjr2lwg0RpOKkCZ-67" edge="1">
          <mxGeometry width="50" height="50" relative="1" as="geometry">
            <mxPoint y="880" as="sourcePoint" />
            <mxPoint x="250" y="880" as="targetPoint" />
          </mxGeometry>
        </mxCell>
        <mxCell id="2Aj4ZYjr2lwg0RpOKkCZ-71" value="" style="endArrow=none;html=1;rounded=0;exitX=-0.001;exitY=0.987;exitDx=0;exitDy=0;exitPerimeter=0;" parent="1" edge="1">
          <mxGeometry width="50" height="50" relative="1" as="geometry">
            <mxPoint y="910" as="sourcePoint" />
            <mxPoint x="260" y="910" as="targetPoint" />
          </mxGeometry>
        </mxCell>
        <mxCell id="2Aj4ZYjr2lwg0RpOKkCZ-72" value="" style="endArrow=none;html=1;rounded=0;" parent="1" edge="1">
          <mxGeometry width="50" height="50" relative="1" as="geometry">
            <mxPoint x="30" y="910" as="sourcePoint" />
            <mxPoint x="30" y="940" as="targetPoint" />
          </mxGeometry>
        </mxCell>
        <mxCell id="2Aj4ZYjr2lwg0RpOKkCZ-73" value="message_date int NOT NULL" style="shape=partialRectangle;overflow=hidden;connectable=0;fillColor=none;top=0;left=0;bottom=0;right=0;align=left;spacingLeft=6;" parent="1" vertex="1">
          <mxGeometry x="30" y="910" width="220" height="30" as="geometry">
            <mxRectangle width="220" height="30" as="alternateBounds" />
          </mxGeometry>
        </mxCell>
        <mxCell id="C7AeFjrTak5IpsO6Qipd-1" value="MESSAGE" style="shape=table;startSize=30;container=1;collapsible=1;childLayout=tableLayout;fixedRows=1;rowLines=0;fontStyle=1;align=center;resizeLast=1;" parent="1" vertex="1">
          <mxGeometry x="1340" y="490" width="250" height="150" as="geometry" />
        </mxCell>
        <mxCell id="C7AeFjrTak5IpsO6Qipd-2" value="" style="shape=partialRectangle;collapsible=0;dropTarget=0;pointerEvents=0;fillColor=none;points=[[0,0.5],[1,0.5]];portConstraint=eastwest;top=0;left=0;right=0;bottom=1;" parent="C7AeFjrTak5IpsO6Qipd-1" vertex="1">
          <mxGeometry y="30" width="250" height="30" as="geometry" />
        </mxCell>
        <mxCell id="C7AeFjrTak5IpsO6Qipd-3" value="PK" style="shape=partialRectangle;overflow=hidden;connectable=0;fillColor=none;top=0;left=0;bottom=0;right=0;fontStyle=1;" parent="C7AeFjrTak5IpsO6Qipd-2" vertex="1">
          <mxGeometry width="30" height="30" as="geometry">
            <mxRectangle width="30" height="30" as="alternateBounds" />
          </mxGeometry>
        </mxCell>
        <mxCell id="C7AeFjrTak5IpsO6Qipd-4" value="messages_UUID int" style="shape=partialRectangle;overflow=hidden;connectable=0;fillColor=none;top=0;left=0;bottom=0;right=0;align=left;spacingLeft=6;fontStyle=5;" parent="C7AeFjrTak5IpsO6Qipd-2" vertex="1">
          <mxGeometry x="30" width="220" height="30" as="geometry">
            <mxRectangle width="220" height="30" as="alternateBounds" />
          </mxGeometry>
        </mxCell>
        <mxCell id="C7AeFjrTak5IpsO6Qipd-5" value="" style="shape=partialRectangle;collapsible=0;dropTarget=0;pointerEvents=0;fillColor=none;points=[[0,0.5],[1,0.5]];portConstraint=eastwest;top=0;left=0;right=0;bottom=0;" parent="C7AeFjrTak5IpsO6Qipd-1" vertex="1">
          <mxGeometry y="60" width="250" height="30" as="geometry" />
        </mxCell>
        <mxCell id="C7AeFjrTak5IpsO6Qipd-6" value="FK1" style="shape=partialRectangle;overflow=hidden;connectable=0;fillColor=none;top=0;left=0;bottom=0;right=0;" parent="C7AeFjrTak5IpsO6Qipd-5" vertex="1">
          <mxGeometry width="30" height="30" as="geometry">
            <mxRectangle width="30" height="30" as="alternateBounds" />
          </mxGeometry>
        </mxCell>
        <mxCell id="C7AeFjrTak5IpsO6Qipd-7" value="chat_UUID int" style="shape=partialRectangle;overflow=hidden;connectable=0;fillColor=none;top=0;left=0;bottom=0;right=0;align=left;spacingLeft=6;" parent="C7AeFjrTak5IpsO6Qipd-5" vertex="1">
          <mxGeometry x="30" width="220" height="30" as="geometry">
            <mxRectangle width="220" height="30" as="alternateBounds" />
          </mxGeometry>
        </mxCell>
        <mxCell id="C7AeFjrTak5IpsO6Qipd-8" value="" style="shape=partialRectangle;collapsible=0;dropTarget=0;pointerEvents=0;fillColor=none;points=[[0,0.5],[1,0.5]];portConstraint=eastwest;top=0;left=0;right=0;bottom=0;" parent="C7AeFjrTak5IpsO6Qipd-1" vertex="1">
          <mxGeometry y="90" width="250" height="30" as="geometry" />
        </mxCell>
        <mxCell id="C7AeFjrTak5IpsO6Qipd-9" value="" style="shape=partialRectangle;overflow=hidden;connectable=0;fillColor=none;top=0;left=0;bottom=0;right=0;" parent="C7AeFjrTak5IpsO6Qipd-8" vertex="1">
          <mxGeometry width="30" height="30" as="geometry">
            <mxRectangle width="30" height="30" as="alternateBounds" />
          </mxGeometry>
        </mxCell>
        <mxCell id="C7AeFjrTak5IpsO6Qipd-10" value="message varchar(MAX)" style="shape=partialRectangle;overflow=hidden;connectable=0;fillColor=none;top=0;left=0;bottom=0;right=0;align=left;spacingLeft=6;" parent="C7AeFjrTak5IpsO6Qipd-8" vertex="1">
          <mxGeometry x="30" width="220" height="30" as="geometry">
            <mxRectangle width="220" height="30" as="alternateBounds" />
          </mxGeometry>
        </mxCell>
        <mxCell id="C7AeFjrTak5IpsO6Qipd-11" value="CHAT" style="shape=table;startSize=30;container=1;collapsible=1;childLayout=tableLayout;fixedRows=1;rowLines=0;fontStyle=1;align=center;resizeLast=1;" parent="1" vertex="1">
          <mxGeometry x="940" y="475" width="250" height="120" as="geometry" />
        </mxCell>
        <mxCell id="C7AeFjrTak5IpsO6Qipd-12" value="" style="shape=partialRectangle;collapsible=0;dropTarget=0;pointerEvents=0;fillColor=none;points=[[0,0.5],[1,0.5]];portConstraint=eastwest;top=0;left=0;right=0;bottom=1;" parent="C7AeFjrTak5IpsO6Qipd-11" vertex="1">
          <mxGeometry y="30" width="250" height="30" as="geometry" />
        </mxCell>
        <mxCell id="C7AeFjrTak5IpsO6Qipd-13" value="PK" style="shape=partialRectangle;overflow=hidden;connectable=0;fillColor=none;top=0;left=0;bottom=0;right=0;fontStyle=1;" parent="C7AeFjrTak5IpsO6Qipd-12" vertex="1">
          <mxGeometry width="30" height="30" as="geometry">
            <mxRectangle width="30" height="30" as="alternateBounds" />
          </mxGeometry>
        </mxCell>
        <mxCell id="C7AeFjrTak5IpsO6Qipd-14" value="chat_UUID int" style="shape=partialRectangle;overflow=hidden;connectable=0;fillColor=none;top=0;left=0;bottom=0;right=0;align=left;spacingLeft=6;fontStyle=5;" parent="C7AeFjrTak5IpsO6Qipd-12" vertex="1">
          <mxGeometry x="30" width="220" height="30" as="geometry">
            <mxRectangle width="220" height="30" as="alternateBounds" />
          </mxGeometry>
        </mxCell>
        <mxCell id="C7AeFjrTak5IpsO6Qipd-15" value="" style="shape=partialRectangle;collapsible=0;dropTarget=0;pointerEvents=0;fillColor=none;points=[[0,0.5],[1,0.5]];portConstraint=eastwest;top=0;left=0;right=0;bottom=0;" parent="C7AeFjrTak5IpsO6Qipd-11" vertex="1">
          <mxGeometry y="60" width="250" height="30" as="geometry" />
        </mxCell>
        <mxCell id="C7AeFjrTak5IpsO6Qipd-16" value="FK1" style="shape=partialRectangle;overflow=hidden;connectable=0;fillColor=none;top=0;left=0;bottom=0;right=0;" parent="C7AeFjrTak5IpsO6Qipd-15" vertex="1">
          <mxGeometry width="30" height="30" as="geometry">
            <mxRectangle width="30" height="30" as="alternateBounds" />
          </mxGeometry>
        </mxCell>
        <mxCell id="C7AeFjrTak5IpsO6Qipd-17" value="user_UUID int" style="shape=partialRectangle;overflow=hidden;connectable=0;fillColor=none;top=0;left=0;bottom=0;right=0;align=left;spacingLeft=6;" parent="C7AeFjrTak5IpsO6Qipd-15" vertex="1">
          <mxGeometry x="30" width="220" height="30" as="geometry">
            <mxRectangle width="220" height="30" as="alternateBounds" />
          </mxGeometry>
        </mxCell>
        <mxCell id="C7AeFjrTak5IpsO6Qipd-18" value="" style="shape=partialRectangle;collapsible=0;dropTarget=0;pointerEvents=0;fillColor=none;points=[[0,0.5],[1,0.5]];portConstraint=eastwest;top=0;left=0;right=0;bottom=0;" parent="C7AeFjrTak5IpsO6Qipd-11" vertex="1">
          <mxGeometry y="90" width="250" height="30" as="geometry" />
        </mxCell>
        <mxCell id="C7AeFjrTak5IpsO6Qipd-19" value="" style="shape=partialRectangle;overflow=hidden;connectable=0;fillColor=none;top=0;left=0;bottom=0;right=0;" parent="C7AeFjrTak5IpsO6Qipd-18" vertex="1">
          <mxGeometry width="30" height="30" as="geometry">
            <mxRectangle width="30" height="30" as="alternateBounds" />
          </mxGeometry>
        </mxCell>
        <mxCell id="C7AeFjrTak5IpsO6Qipd-20" value="" style="shape=partialRectangle;overflow=hidden;connectable=0;fillColor=none;top=0;left=0;bottom=0;right=0;align=left;spacingLeft=6;" parent="C7AeFjrTak5IpsO6Qipd-18" vertex="1">
          <mxGeometry x="30" width="220" height="30" as="geometry">
            <mxRectangle width="220" height="30" as="alternateBounds" />
          </mxGeometry>
        </mxCell>
        <mxCell id="C7AeFjrTak5IpsO6Qipd-21" value="" style="endArrow=none;html=1;rounded=0;exitX=0;exitY=0;exitDx=0;exitDy=0;exitPerimeter=0;entryX=0.998;entryY=0.998;entryDx=0;entryDy=0;entryPerimeter=0;" parent="C7AeFjrTak5IpsO6Qipd-11" source="C7AeFjrTak5IpsO6Qipd-18" target="C7AeFjrTak5IpsO6Qipd-15" edge="1">
          <mxGeometry width="50" height="50" relative="1" as="geometry">
            <mxPoint x="80" y="160" as="sourcePoint" />
            <mxPoint x="130" y="110" as="targetPoint" />
          </mxGeometry>
        </mxCell>
        <mxCell id="C7AeFjrTak5IpsO6Qipd-22" value="USER" style="shape=table;startSize=30;container=1;collapsible=1;childLayout=tableLayout;fixedRows=1;rowLines=0;fontStyle=1;align=center;resizeLast=1;" parent="1" vertex="1">
          <mxGeometry x="540" y="690" width="250" height="150" as="geometry" />
        </mxCell>
        <mxCell id="C7AeFjrTak5IpsO6Qipd-23" value="" style="shape=partialRectangle;collapsible=0;dropTarget=0;pointerEvents=0;fillColor=none;points=[[0,0.5],[1,0.5]];portConstraint=eastwest;top=0;left=0;right=0;bottom=1;" parent="C7AeFjrTak5IpsO6Qipd-22" vertex="1">
          <mxGeometry y="30" width="250" height="30" as="geometry" />
        </mxCell>
        <mxCell id="C7AeFjrTak5IpsO6Qipd-24" value="PK" style="shape=partialRectangle;overflow=hidden;connectable=0;fillColor=none;top=0;left=0;bottom=0;right=0;fontStyle=1;" parent="C7AeFjrTak5IpsO6Qipd-23" vertex="1">
          <mxGeometry width="30" height="30" as="geometry">
            <mxRectangle width="30" height="30" as="alternateBounds" />
          </mxGeometry>
        </mxCell>
        <mxCell id="C7AeFjrTak5IpsO6Qipd-25" value="user_UUID int" style="shape=partialRectangle;overflow=hidden;connectable=0;fillColor=none;top=0;left=0;bottom=0;right=0;align=left;spacingLeft=6;fontStyle=5;" parent="C7AeFjrTak5IpsO6Qipd-23" vertex="1">
          <mxGeometry x="30" width="220" height="30" as="geometry">
            <mxRectangle width="220" height="30" as="alternateBounds" />
          </mxGeometry>
        </mxCell>
        <mxCell id="C7AeFjrTak5IpsO6Qipd-26" value="" style="shape=partialRectangle;collapsible=0;dropTarget=0;pointerEvents=0;fillColor=none;points=[[0,0.5],[1,0.5]];portConstraint=eastwest;top=0;left=0;right=0;bottom=0;" parent="C7AeFjrTak5IpsO6Qipd-22" vertex="1">
          <mxGeometry y="60" width="250" height="30" as="geometry" />
        </mxCell>
        <mxCell id="C7AeFjrTak5IpsO6Qipd-27" value="" style="shape=partialRectangle;overflow=hidden;connectable=0;fillColor=none;top=0;left=0;bottom=0;right=0;" parent="C7AeFjrTak5IpsO6Qipd-26" vertex="1">
          <mxGeometry width="30" height="30" as="geometry">
            <mxRectangle width="30" height="30" as="alternateBounds" />
          </mxGeometry>
        </mxCell>
        <mxCell id="C7AeFjrTak5IpsO6Qipd-28" value="user_name varchar(50) NOT NULL" style="shape=partialRectangle;overflow=hidden;connectable=0;fillColor=none;top=0;left=0;bottom=0;right=0;align=left;spacingLeft=6;" parent="C7AeFjrTak5IpsO6Qipd-26" vertex="1">
          <mxGeometry x="30" width="220" height="30" as="geometry">
            <mxRectangle width="220" height="30" as="alternateBounds" />
          </mxGeometry>
        </mxCell>
        <mxCell id="C7AeFjrTak5IpsO6Qipd-29" value="FAVORITE" style="shape=table;startSize=30;container=1;collapsible=1;childLayout=tableLayout;fixedRows=1;rowLines=0;fontStyle=1;align=center;resizeLast=1;" parent="1" vertex="1">
          <mxGeometry x="940" y="660" width="250" height="120" as="geometry" />
        </mxCell>
        <mxCell id="C7AeFjrTak5IpsO6Qipd-30" value="" style="shape=partialRectangle;collapsible=0;dropTarget=0;pointerEvents=0;fillColor=none;points=[[0,0.5],[1,0.5]];portConstraint=eastwest;top=0;left=0;right=0;bottom=1;" parent="C7AeFjrTak5IpsO6Qipd-29" vertex="1">
          <mxGeometry y="30" width="250" height="30" as="geometry" />
        </mxCell>
        <mxCell id="C7AeFjrTak5IpsO6Qipd-31" value="PK" style="shape=partialRectangle;overflow=hidden;connectable=0;fillColor=none;top=0;left=0;bottom=0;right=0;fontStyle=1;" parent="C7AeFjrTak5IpsO6Qipd-30" vertex="1">
          <mxGeometry width="30" height="30" as="geometry">
            <mxRectangle width="30" height="30" as="alternateBounds" />
          </mxGeometry>
        </mxCell>
        <mxCell id="C7AeFjrTak5IpsO6Qipd-32" value="favorites_UUID int" style="shape=partialRectangle;overflow=hidden;connectable=0;fillColor=none;top=0;left=0;bottom=0;right=0;align=left;spacingLeft=6;fontStyle=5;" parent="C7AeFjrTak5IpsO6Qipd-30" vertex="1">
          <mxGeometry x="30" width="220" height="30" as="geometry">
            <mxRectangle width="220" height="30" as="alternateBounds" />
          </mxGeometry>
        </mxCell>
        <mxCell id="C7AeFjrTak5IpsO6Qipd-33" value="" style="shape=partialRectangle;collapsible=0;dropTarget=0;pointerEvents=0;fillColor=none;points=[[0,0.5],[1,0.5]];portConstraint=eastwest;top=0;left=0;right=0;bottom=0;" parent="C7AeFjrTak5IpsO6Qipd-29" vertex="1">
          <mxGeometry y="60" width="250" height="30" as="geometry" />
        </mxCell>
        <mxCell id="C7AeFjrTak5IpsO6Qipd-34" value="FK1" style="shape=partialRectangle;overflow=hidden;connectable=0;fillColor=none;top=0;left=0;bottom=0;right=0;" parent="C7AeFjrTak5IpsO6Qipd-33" vertex="1">
          <mxGeometry width="30" height="30" as="geometry">
            <mxRectangle width="30" height="30" as="alternateBounds" />
          </mxGeometry>
        </mxCell>
        <mxCell id="C7AeFjrTak5IpsO6Qipd-35" value="user_UUID int" style="shape=partialRectangle;overflow=hidden;connectable=0;fillColor=none;top=0;left=0;bottom=0;right=0;align=left;spacingLeft=6;" parent="C7AeFjrTak5IpsO6Qipd-33" vertex="1">
          <mxGeometry x="30" width="220" height="30" as="geometry">
            <mxRectangle width="220" height="30" as="alternateBounds" />
          </mxGeometry>
        </mxCell>
        <mxCell id="C7AeFjrTak5IpsO6Qipd-36" value="" style="shape=partialRectangle;collapsible=0;dropTarget=0;pointerEvents=0;fillColor=none;points=[[0,0.5],[1,0.5]];portConstraint=eastwest;top=0;left=0;right=0;bottom=0;" parent="C7AeFjrTak5IpsO6Qipd-29" vertex="1">
          <mxGeometry y="90" width="250" height="30" as="geometry" />
        </mxCell>
        <mxCell id="C7AeFjrTak5IpsO6Qipd-37" value="" style="shape=partialRectangle;overflow=hidden;connectable=0;fillColor=none;top=0;left=0;bottom=0;right=0;" parent="C7AeFjrTak5IpsO6Qipd-36" vertex="1">
          <mxGeometry width="30" height="30" as="geometry">
            <mxRectangle width="30" height="30" as="alternateBounds" />
          </mxGeometry>
        </mxCell>
        <mxCell id="C7AeFjrTak5IpsO6Qipd-38" value="" style="shape=partialRectangle;overflow=hidden;connectable=0;fillColor=none;top=0;left=0;bottom=0;right=0;align=left;spacingLeft=6;" parent="C7AeFjrTak5IpsO6Qipd-36" vertex="1">
          <mxGeometry x="30" width="220" height="30" as="geometry">
            <mxRectangle width="220" height="30" as="alternateBounds" />
          </mxGeometry>
        </mxCell>
        <mxCell id="C7AeFjrTak5IpsO6Qipd-39" value="PREFERENCE" style="shape=table;startSize=30;container=1;collapsible=1;childLayout=tableLayout;fixedRows=1;rowLines=0;fontStyle=1;align=center;resizeLast=1;" parent="1" vertex="1">
          <mxGeometry x="940" y="870" width="250" height="180" as="geometry" />
        </mxCell>
        <mxCell id="C7AeFjrTak5IpsO6Qipd-40" value="" style="shape=partialRectangle;collapsible=0;dropTarget=0;pointerEvents=0;fillColor=none;points=[[0,0.5],[1,0.5]];portConstraint=eastwest;top=0;left=0;right=0;bottom=1;" parent="C7AeFjrTak5IpsO6Qipd-39" vertex="1">
          <mxGeometry y="30" width="250" height="30" as="geometry" />
        </mxCell>
        <mxCell id="C7AeFjrTak5IpsO6Qipd-41" value="PK" style="shape=partialRectangle;overflow=hidden;connectable=0;fillColor=none;top=0;left=0;bottom=0;right=0;fontStyle=1;" parent="C7AeFjrTak5IpsO6Qipd-40" vertex="1">
          <mxGeometry width="30" height="30" as="geometry">
            <mxRectangle width="30" height="30" as="alternateBounds" />
          </mxGeometry>
        </mxCell>
        <mxCell id="C7AeFjrTak5IpsO6Qipd-42" value="preferences_UUID int" style="shape=partialRectangle;overflow=hidden;connectable=0;fillColor=none;top=0;left=0;bottom=0;right=0;align=left;spacingLeft=6;fontStyle=5;" parent="C7AeFjrTak5IpsO6Qipd-40" vertex="1">
          <mxGeometry x="30" width="220" height="30" as="geometry">
            <mxRectangle width="220" height="30" as="alternateBounds" />
          </mxGeometry>
        </mxCell>
        <mxCell id="C7AeFjrTak5IpsO6Qipd-43" value="" style="shape=partialRectangle;collapsible=0;dropTarget=0;pointerEvents=0;fillColor=none;points=[[0,0.5],[1,0.5]];portConstraint=eastwest;top=0;left=0;right=0;bottom=0;" parent="C7AeFjrTak5IpsO6Qipd-39" vertex="1">
          <mxGeometry y="60" width="250" height="30" as="geometry" />
        </mxCell>
        <mxCell id="C7AeFjrTak5IpsO6Qipd-44" value="FK1" style="shape=partialRectangle;overflow=hidden;connectable=0;fillColor=none;top=0;left=0;bottom=0;right=0;" parent="C7AeFjrTak5IpsO6Qipd-43" vertex="1">
          <mxGeometry width="30" height="30" as="geometry">
            <mxRectangle width="30" height="30" as="alternateBounds" />
          </mxGeometry>
        </mxCell>
        <mxCell id="C7AeFjrTak5IpsO6Qipd-45" value="user_UUID int" style="shape=partialRectangle;overflow=hidden;connectable=0;fillColor=none;top=0;left=0;bottom=0;right=0;align=left;spacingLeft=6;" parent="C7AeFjrTak5IpsO6Qipd-43" vertex="1">
          <mxGeometry x="30" width="220" height="30" as="geometry">
            <mxRectangle width="220" height="30" as="alternateBounds" />
          </mxGeometry>
        </mxCell>
        <mxCell id="C7AeFjrTak5IpsO6Qipd-46" value="" style="shape=partialRectangle;collapsible=0;dropTarget=0;pointerEvents=0;fillColor=none;points=[[0,0.5],[1,0.5]];portConstraint=eastwest;top=0;left=0;right=0;bottom=0;" parent="C7AeFjrTak5IpsO6Qipd-39" vertex="1">
          <mxGeometry y="90" width="250" height="30" as="geometry" />
        </mxCell>
        <mxCell id="C7AeFjrTak5IpsO6Qipd-47" value="" style="shape=partialRectangle;overflow=hidden;connectable=0;fillColor=none;top=0;left=0;bottom=0;right=0;" parent="C7AeFjrTak5IpsO6Qipd-46" vertex="1">
          <mxGeometry width="30" height="30" as="geometry">
            <mxRectangle width="30" height="30" as="alternateBounds" />
          </mxGeometry>
        </mxCell>
        <mxCell id="C7AeFjrTak5IpsO6Qipd-48" value="" style="shape=partialRectangle;overflow=hidden;connectable=0;fillColor=none;top=0;left=0;bottom=0;right=0;align=left;spacingLeft=6;" parent="C7AeFjrTak5IpsO6Qipd-46" vertex="1">
          <mxGeometry x="30" width="220" height="30" as="geometry">
            <mxRectangle width="220" height="30" as="alternateBounds" />
          </mxGeometry>
        </mxCell>
        <mxCell id="C7AeFjrTak5IpsO6Qipd-49" value="" style="edgeStyle=entityRelationEdgeStyle;endArrow=ERzeroToMany;startArrow=ERone;endFill=1;startFill=0;exitX=1;exitY=0.5;exitDx=0;exitDy=0;entryX=0;entryY=0.5;entryDx=0;entryDy=0;" parent="1" source="C7AeFjrTak5IpsO6Qipd-81" target="C7AeFjrTak5IpsO6Qipd-15" edge="1">
          <mxGeometry width="100" height="100" relative="1" as="geometry">
            <mxPoint x="780" y="735" as="sourcePoint" />
            <mxPoint x="950" y="515" as="targetPoint" />
          </mxGeometry>
        </mxCell>
        <mxCell id="C7AeFjrTak5IpsO6Qipd-50" value="" style="edgeStyle=entityRelationEdgeStyle;endArrow=ERzeroToMany;startArrow=ERone;endFill=1;startFill=0;exitX=1;exitY=0.5;exitDx=0;exitDy=0;entryX=0;entryY=0.5;entryDx=0;entryDy=0;" parent="1" source="C7AeFjrTak5IpsO6Qipd-82" target="C7AeFjrTak5IpsO6Qipd-33" edge="1">
          <mxGeometry width="100" height="100" relative="1" as="geometry">
            <mxPoint x="780" y="735" as="sourcePoint" />
            <mxPoint x="950" y="635" as="targetPoint" />
          </mxGeometry>
        </mxCell>
        <mxCell id="C7AeFjrTak5IpsO6Qipd-51" value="" style="edgeStyle=entityRelationEdgeStyle;endArrow=ERzeroToMany;startArrow=ERone;endFill=1;startFill=0;exitX=1;exitY=0.5;exitDx=0;exitDy=0;entryX=0;entryY=0.5;entryDx=0;entryDy=0;" parent="1" source="C7AeFjrTak5IpsO6Qipd-83" target="C7AeFjrTak5IpsO6Qipd-43" edge="1">
          <mxGeometry width="100" height="100" relative="1" as="geometry">
            <mxPoint x="780" y="735" as="sourcePoint" />
            <mxPoint x="950" y="785" as="targetPoint" />
          </mxGeometry>
        </mxCell>
        <mxCell id="C7AeFjrTak5IpsO6Qipd-52" value="" style="edgeStyle=entityRelationEdgeStyle;endArrow=ERzeroToMany;startArrow=ERone;endFill=1;startFill=0;exitX=1;exitY=0.5;exitDx=0;exitDy=0;entryX=0;entryY=0.5;entryDx=0;entryDy=0;" parent="1" source="C7AeFjrTak5IpsO6Qipd-80" target="C7AeFjrTak5IpsO6Qipd-5" edge="1">
          <mxGeometry width="100" height="100" relative="1" as="geometry">
            <mxPoint x="780" y="735" as="sourcePoint" />
            <mxPoint x="950" y="635" as="targetPoint" />
          </mxGeometry>
        </mxCell>
        <mxCell id="C7AeFjrTak5IpsO6Qipd-60" value="" style="endArrow=none;html=1;rounded=0;exitX=0;exitY=0;exitDx=0;exitDy=0;exitPerimeter=0;entryX=0.998;entryY=0.998;entryDx=0;entryDy=0;entryPerimeter=0;" parent="1" edge="1">
          <mxGeometry width="50" height="50" relative="1" as="geometry">
            <mxPoint x="1340" y="580" as="sourcePoint" />
            <mxPoint x="1590" y="580" as="targetPoint" />
          </mxGeometry>
        </mxCell>
        <mxCell id="C7AeFjrTak5IpsO6Qipd-61" value="" style="endArrow=none;html=1;rounded=0;exitX=0;exitY=0;exitDx=0;exitDy=0;exitPerimeter=0;entryX=0.998;entryY=0.998;entryDx=0;entryDy=0;entryPerimeter=0;" parent="1" edge="1">
          <mxGeometry width="50" height="50" relative="1" as="geometry">
            <mxPoint x="1340" y="610" as="sourcePoint" />
            <mxPoint x="1590" y="610" as="targetPoint" />
          </mxGeometry>
        </mxCell>
        <mxCell id="C7AeFjrTak5IpsO6Qipd-62" value="" style="endArrow=none;html=1;rounded=0;" parent="1" edge="1">
          <mxGeometry width="50" height="50" relative="1" as="geometry">
            <mxPoint x="1370" y="580" as="sourcePoint" />
            <mxPoint x="1370" y="640" as="targetPoint" />
          </mxGeometry>
        </mxCell>
        <mxCell id="C7AeFjrTak5IpsO6Qipd-63" value="date CurrentDateTime" style="shape=partialRectangle;overflow=hidden;connectable=0;fillColor=none;top=0;left=0;bottom=0;right=0;align=left;spacingLeft=6;" parent="1" vertex="1">
          <mxGeometry x="1370" y="610" width="220" height="30" as="geometry">
            <mxRectangle width="220" height="30" as="alternateBounds" />
          </mxGeometry>
        </mxCell>
        <mxCell id="C7AeFjrTak5IpsO6Qipd-64" value="" style="endArrow=none;html=1;rounded=0;" parent="1" edge="1">
          <mxGeometry width="50" height="50" relative="1" as="geometry">
            <mxPoint x="970" y="750" as="sourcePoint" />
            <mxPoint x="970" y="780" as="targetPoint" />
          </mxGeometry>
        </mxCell>
        <mxCell id="C7AeFjrTak5IpsO6Qipd-65" value="" style="endArrow=none;html=1;rounded=0;exitX=0;exitY=0;exitDx=0;exitDy=0;exitPerimeter=0;entryX=0.998;entryY=0.998;entryDx=0;entryDy=0;entryPerimeter=0;" parent="1" edge="1">
          <mxGeometry width="50" height="50" relative="1" as="geometry">
            <mxPoint x="940" y="750" as="sourcePoint" />
            <mxPoint x="1190" y="750" as="targetPoint" />
          </mxGeometry>
        </mxCell>
        <mxCell id="C7AeFjrTak5IpsO6Qipd-66" value="" style="endArrow=none;html=1;rounded=0;exitX=0;exitY=0;exitDx=0;exitDy=0;exitPerimeter=0;entryX=0.998;entryY=0.998;entryDx=0;entryDy=0;entryPerimeter=0;" parent="1" edge="1">
          <mxGeometry width="50" height="50" relative="1" as="geometry">
            <mxPoint x="940" y="780" as="sourcePoint" />
            <mxPoint x="1190" y="780" as="targetPoint" />
          </mxGeometry>
        </mxCell>
        <mxCell id="C7AeFjrTak5IpsO6Qipd-67" value="mythic_rating int" style="shape=partialRectangle;overflow=hidden;connectable=0;fillColor=none;top=0;left=0;bottom=0;right=0;align=left;spacingLeft=6;" parent="1" vertex="1">
          <mxGeometry x="970" y="750" width="220" height="30" as="geometry">
            <mxRectangle width="220" height="30" as="alternateBounds" />
          </mxGeometry>
        </mxCell>
        <mxCell id="C7AeFjrTak5IpsO6Qipd-68" value="" style="endArrow=none;html=1;rounded=0;exitX=0;exitY=0;exitDx=0;exitDy=0;exitPerimeter=0;entryX=0.999;entryY=-0.004;entryDx=0;entryDy=0;entryPerimeter=0;" parent="1" target="C7AeFjrTak5IpsO6Qipd-46" edge="1">
          <mxGeometry width="50" height="50" relative="1" as="geometry">
            <mxPoint x="940" y="960" as="sourcePoint" />
            <mxPoint x="1190" y="960" as="targetPoint" />
          </mxGeometry>
        </mxCell>
        <mxCell id="C7AeFjrTak5IpsO6Qipd-69" value="" style="endArrow=none;html=1;rounded=0;exitX=0;exitY=0;exitDx=0;exitDy=0;exitPerimeter=0;entryX=0.998;entryY=0.996;entryDx=0;entryDy=0;entryPerimeter=0;" parent="1" target="C7AeFjrTak5IpsO6Qipd-46" edge="1">
          <mxGeometry width="50" height="50" relative="1" as="geometry">
            <mxPoint x="940" y="990" as="sourcePoint" />
            <mxPoint x="1190" y="990" as="targetPoint" />
          </mxGeometry>
        </mxCell>
        <mxCell id="C7AeFjrTak5IpsO6Qipd-70" value="" style="endArrow=none;html=1;rounded=0;" parent="1" edge="1">
          <mxGeometry width="50" height="50" relative="1" as="geometry">
            <mxPoint x="970" y="960" as="sourcePoint" />
            <mxPoint x="970" y="1050" as="targetPoint" />
          </mxGeometry>
        </mxCell>
        <mxCell id="C7AeFjrTak5IpsO6Qipd-71" value="" style="endArrow=none;html=1;rounded=0;" parent="1" edge="1">
          <mxGeometry width="50" height="50" relative="1" as="geometry">
            <mxPoint x="570" y="750" as="sourcePoint" />
            <mxPoint x="570" y="840" as="targetPoint" />
          </mxGeometry>
        </mxCell>
        <mxCell id="C7AeFjrTak5IpsO6Qipd-72" value="" style="endArrow=none;html=1;rounded=0;exitX=0;exitY=0;exitDx=0;exitDy=0;exitPerimeter=0;entryX=0.998;entryY=0.998;entryDx=0;entryDy=0;entryPerimeter=0;" parent="1" edge="1">
          <mxGeometry width="50" height="50" relative="1" as="geometry">
            <mxPoint x="540" y="780" as="sourcePoint" />
            <mxPoint x="790" y="780" as="targetPoint" />
          </mxGeometry>
        </mxCell>
        <mxCell id="C7AeFjrTak5IpsO6Qipd-73" value="" style="endArrow=none;html=1;rounded=0;exitX=0;exitY=0;exitDx=0;exitDy=0;exitPerimeter=0;entryX=0.998;entryY=0.998;entryDx=0;entryDy=0;entryPerimeter=0;" parent="1" edge="1">
          <mxGeometry width="50" height="50" relative="1" as="geometry">
            <mxPoint x="540" y="809.4300000000001" as="sourcePoint" />
            <mxPoint x="790" y="809.4300000000001" as="targetPoint" />
          </mxGeometry>
        </mxCell>
        <mxCell id="C7AeFjrTak5IpsO6Qipd-74" value="google_email varchar(50) NOT NULL" style="shape=partialRectangle;overflow=hidden;connectable=0;fillColor=none;top=0;left=0;bottom=0;right=0;align=left;spacingLeft=6;" parent="1" vertex="1">
          <mxGeometry x="570" y="780" width="220" height="30" as="geometry">
            <mxRectangle width="220" height="30" as="alternateBounds" />
          </mxGeometry>
        </mxCell>
        <mxCell id="C7AeFjrTak5IpsO6Qipd-75" value="phone_number varchar(20) UQ" style="shape=partialRectangle;overflow=hidden;connectable=0;fillColor=none;top=0;left=0;bottom=0;right=0;align=left;spacingLeft=6;" parent="1" vertex="1">
          <mxGeometry x="570" y="810" width="220" height="30" as="geometry">
            <mxRectangle width="220" height="30" as="alternateBounds" />
          </mxGeometry>
        </mxCell>
        <mxCell id="C7AeFjrTak5IpsO6Qipd-76" value="theme ENUM" style="shape=partialRectangle;overflow=hidden;connectable=0;fillColor=none;top=0;left=0;bottom=0;right=0;align=left;spacingLeft=6;" parent="1" vertex="1">
          <mxGeometry x="970" y="960" width="220" height="30" as="geometry">
            <mxRectangle width="220" height="30" as="alternateBounds" />
          </mxGeometry>
        </mxCell>
        <mxCell id="C7AeFjrTak5IpsO6Qipd-77" value="push_notifications Boolean" style="shape=partialRectangle;overflow=hidden;connectable=0;fillColor=none;top=0;left=0;bottom=0;right=0;align=left;spacingLeft=6;" parent="1" vertex="1">
          <mxGeometry x="970" y="990" width="220" height="30" as="geometry">
            <mxRectangle width="220" height="30" as="alternateBounds" />
          </mxGeometry>
        </mxCell>
        <mxCell id="C7AeFjrTak5IpsO6Qipd-78" value="wallpaper_img varchar(MAX)" style="shape=partialRectangle;overflow=hidden;connectable=0;fillColor=none;top=0;left=0;bottom=0;right=0;align=left;spacingLeft=6;" parent="1" vertex="1">
          <mxGeometry x="970" y="1020" width="220" height="30" as="geometry">
            <mxRectangle width="220" height="30" as="alternateBounds" />
          </mxGeometry>
        </mxCell>
        <mxCell id="C7AeFjrTak5IpsO6Qipd-79" value="" style="endArrow=none;html=1;rounded=0;exitX=0;exitY=0;exitDx=0;exitDy=0;exitPerimeter=0;" parent="1" edge="1">
          <mxGeometry width="50" height="50" relative="1" as="geometry">
            <mxPoint x="941" y="1020" as="sourcePoint" />
            <mxPoint x="1190" y="1020" as="targetPoint" />
          </mxGeometry>
        </mxCell>
        <mxCell id="C7AeFjrTak5IpsO6Qipd-84" value="" style="edgeStyle=entityRelationEdgeStyle;endArrow=ERzeroToMany;startArrow=ERone;endFill=1;startFill=0;exitX=1;exitY=0.5;exitDx=0;exitDy=0;entryX=0;entryY=0.5;entryDx=0;entryDy=0;" parent="1" source="C7AeFjrTak5IpsO6Qipd-23" target="C7AeFjrTak5IpsO6Qipd-81" edge="1">
          <mxGeometry width="100" height="100" relative="1" as="geometry">
            <mxPoint x="790" y="735" as="sourcePoint" />
            <mxPoint x="940" y="550" as="targetPoint" />
          </mxGeometry>
        </mxCell>
        <mxCell id="C7AeFjrTak5IpsO6Qipd-81" value="1:N" style="text;html=1;align=center;verticalAlign=middle;resizable=0;points=[];autosize=1;strokeColor=none;fillColor=none;" parent="1" vertex="1">
          <mxGeometry x="840" y="610" width="40" height="30" as="geometry" />
        </mxCell>
        <mxCell id="C7AeFjrTak5IpsO6Qipd-85" value="" style="edgeStyle=entityRelationEdgeStyle;endArrow=ERzeroToMany;startArrow=ERone;endFill=1;startFill=0;exitX=1;exitY=0.5;exitDx=0;exitDy=0;entryX=0;entryY=0.5;entryDx=0;entryDy=0;" parent="1" source="C7AeFjrTak5IpsO6Qipd-23" target="C7AeFjrTak5IpsO6Qipd-82" edge="1">
          <mxGeometry width="100" height="100" relative="1" as="geometry">
            <mxPoint x="790" y="735" as="sourcePoint" />
            <mxPoint x="940" y="735" as="targetPoint" />
          </mxGeometry>
        </mxCell>
        <mxCell id="C7AeFjrTak5IpsO6Qipd-82" value="N:N" style="text;html=1;align=center;verticalAlign=middle;resizable=0;points=[];autosize=1;strokeColor=none;fillColor=none;" parent="1" vertex="1">
          <mxGeometry x="860" y="720" width="40" height="30" as="geometry" />
        </mxCell>
        <mxCell id="C7AeFjrTak5IpsO6Qipd-86" value="" style="edgeStyle=entityRelationEdgeStyle;endArrow=ERzeroToMany;startArrow=ERone;endFill=1;startFill=0;exitX=1;exitY=0.5;exitDx=0;exitDy=0;entryX=0;entryY=0.5;entryDx=0;entryDy=0;" parent="1" source="C7AeFjrTak5IpsO6Qipd-23" target="C7AeFjrTak5IpsO6Qipd-83" edge="1">
          <mxGeometry width="100" height="100" relative="1" as="geometry">
            <mxPoint x="790" y="735" as="sourcePoint" />
            <mxPoint x="940" y="935" as="targetPoint" />
          </mxGeometry>
        </mxCell>
        <mxCell id="C7AeFjrTak5IpsO6Qipd-83" value="1:1" style="text;html=1;align=center;verticalAlign=middle;resizable=0;points=[];autosize=1;strokeColor=none;fillColor=none;rotation=0;" parent="1" vertex="1">
          <mxGeometry x="840" y="820" width="40" height="30" as="geometry" />
        </mxCell>
        <mxCell id="C7AeFjrTak5IpsO6Qipd-87" value="" style="edgeStyle=entityRelationEdgeStyle;endArrow=ERzeroToMany;startArrow=ERone;endFill=1;startFill=0;exitX=1;exitY=0.5;exitDx=0;exitDy=0;entryX=0;entryY=0.5;entryDx=0;entryDy=0;" parent="1" source="C7AeFjrTak5IpsO6Qipd-12" target="C7AeFjrTak5IpsO6Qipd-80" edge="1">
          <mxGeometry width="100" height="100" relative="1" as="geometry">
            <mxPoint x="1190" y="520" as="sourcePoint" />
            <mxPoint x="1300" y="565" as="targetPoint" />
          </mxGeometry>
        </mxCell>
        <mxCell id="C7AeFjrTak5IpsO6Qipd-80" value="1:N" style="text;html=1;align=center;verticalAlign=middle;resizable=0;points=[];autosize=1;strokeColor=none;fillColor=none;" parent="1" vertex="1">
          <mxGeometry x="1240" y="522.5" width="40" height="30" as="geometry" />
        </mxCell>
      </root>
    </mxGraphModel>
  </diagram>
</mxfile>
